<svg xmlns="http://www.w3.org/2000/svg" width="200" height="209" viewBox="0 0 200 209">
    <style>.L{fill:#d80327}.TL{fill:#6da544}.B{fill:#6da544}.TR{fill:#d80327}.R{fill:#6da544}.l{fill:#6da544}.b{fill:#d80327}.r{fill:#ffda44}</style>
    <path class="L" d="M0 164l78 45v-43l-41-24v-95l-37-22z"/>
    <path class="TL" d="M1 21l38 22 38-22-38-21z"/>
    <path class="B" d="M82 166v43l77-45v-43z"/>
    <path class="TR" d="M124 45l37 21 38-21-38-22z"/>
    <path class="R" d="M163 70v44l37-22-.1-43z"/>
    <path class="l" d="M41 47v90l37-22v-90z"/>
    <path class="b" d="M42.5 140.5l37.5 21.5 77-44.5-37-22.5z"/>
    <path class="r" d="M122 92l37 22v-44l-37-21z"/>
</svg>
