<svg xmlns="http://www.w3.org/2000/svg" width="200" height="290" viewBox="0 0 200 290">
    <style>.L{fill:#d80327}.TL{fill:#6da544}.B{fill:#6da544}.TR{fill:#d80327}.R{fill:#6da544}.l{fill:#6da544}.b{fill:#d80327}.r{fill:#ffda44}</style>
    <path class="L" d="M0 164l78 45v-43l-41-24v-95l-37-22z"/>
    <path class="TL" d="M1 21l38 22 38-22-38-21z"/>
    <path class="B" d="M82 166v43l77-45v-43z"/>
    <path class="TR" d="M124 45l37 21 38-21-38-22z"/>
    <path class="R" d="M163 70v44l37-22-.1-43z"/>
    <path class="l" d="M41 47v90l37-22v-90z"/>
    <path class="b" d="M42.5 140.5l37.5 21.5 77-44.5-37-22.5z"/>
    <path class="r" d="M122 92l37 22v-44l-37-21z"/>
    <path d="M7.9 219v40.2h14.8v6.9h-22.7v-47.1h7.9zm42.4 20v-4.2h7.4v31.4h-7.4v-4.2c-1 1.6-2.4 2.8-4.3 3.7-1.8.9-3.7 1.3-5.6 1.3-2.4 0-4.6-.4-6.6-1.3-2-.8-3.7-2.1-5.2-3.6-1.4-1.5-2.6-3.3-3.3-5.3-.8-2-1.2-4.2-1.2-6.3 0-2.2.4-4.3 1.2-6.3.8-2 1.9-3.8 3.3-5.3 1.5-1.5 3.2-2.8 5.2-3.6 2-.9 4.2-1.3 6.6-1.3 1.9 0 3.7.4 5.6 1.3 1.9.9 3.3 2.1 4.3 3.7zm-.6 15.3c.5-1.2.7-2.5.7-3.8 0-1.3-.2-2.6-.7-3.8-.4-1.2-1.1-2.2-1.9-3.2-.8-.9-1.8-1.6-3-2.2-1.2-.5-2.4-.8-3.9-.8-1.4 0-2.7.3-3.8.8-1.1.5-2.1 1.3-2.9 2.2-.8.9-1.5 2-1.9 3.2-.4 1.2-.7 2.5-.7 3.8 0 1.3.2 2.6.6 3.8.4 1.2 1.1 2.3 1.9 3.2.8.9 1.8 1.6 2.9 2.2 1.1.5 2.4.8 3.8.8s2.7-.3 3.9-.8c1.1-.5 2.1-1.2 3-2.2.9-.9 1.5-2 2-3.2zm14 11.9v-31.4h20.2v7.2h-12.8v24.2h-7.4zm47.2-27.2v-4.2h7.4v31.4h-7.4v-4.2c-1 1.6-2.4 2.8-4.3 3.7-1.8.9-3.7 1.3-5.6 1.3-2.4 0-4.6-.4-6.6-1.3-2-.8-3.7-2.1-5.2-3.6-1.4-1.5-2.6-3.3-3.3-5.3-.8-2-1.2-4.2-1.2-6.3 0-2.2.4-4.3 1.2-6.3.8-2 1.9-3.8 3.3-5.3 1.5-1.5 3.2-2.8 5.2-3.6 2-.9 4.2-1.3 6.6-1.3 1.9 0 3.7.4 5.6 1.3 1.8.9 3.3 2.1 4.3 3.7zm-.7 15.3c.5-1.2.7-2.5.7-3.8 0-1.3-.2-2.6-.7-3.8-.4-1.2-1.1-2.2-1.9-3.2-.8-.9-1.8-1.6-3-2.2-1.2-.5-2.4-.8-3.9-.8-1.4 0-2.7.3-3.8.8-1.1.5-2.1 1.3-2.9 2.2-.8.9-1.5 2-1.9 3.2-.4 1.2-.7 2.5-.6 3.8 0 1.3.2 2.6.6 3.8.4 1.2 1.1 2.3 1.9 3.2.8.9 1.8 1.6 2.9 2.2 1.1.5 2.4.8 3.8.8s2.7-.3 3.9-.8c1.1-.5 2.1-1.2 3-2.2.8-.9 1.5-2 1.9-3.2zm38-19.5h7.5l-12.2 31.4h-9.4l-12.2-31.4h7.5l9.4 24.1 9.4-24.1zm23.8-.8c10.1 0 17.1 8.9 15.8 19.2h-24.8c0 2.7 2.8 7.9 9.4 7.9 5.7 0 9.5-4.9 9.5-4.9l5 3.8c-4.5 4.7-8.2 6.9-13.9 6.9-10.3 0-17.3-6.4-17.3-16.5-.1-9 7.1-16.4 16.3-16.4zm-9 13.8h17.8c-.1-.6-1-7.9-9-7.9-7.9-.1-8.7 7.2-8.8 7.9zm29.6 18.4v-47.2h7.4v47.2h-7.4z"/>
    <path d="M39.1 274.2h7.4c1.8 0 3.2.4 4.1 1.3 1 .9 1.5 2 1.5 3.5 0 1.4-.5 2.6-1.5 3.5-1 .9-2.4 1.3-4.1 1.3h-3.3v6.1h-4.1v-15.7zm6.9 6.4c1.5 0 2.3-.5 2.3-1.6 0-.6-.2-1-.6-1.3-.4-.3-1-.4-1.8-.4h-2.8v3.3h2.9zM57.4 289c-1.2-.6-2.1-1.6-2.7-2.8-.6-1.2-.9-2.6-.9-4.3 0-1.6.3-3 1-4.2.6-1.2 1.5-2.1 2.7-2.8 1.2-.6 2.6-1 4.1-1 1.6 0 3 .3 4.1 1 1.2.6 2.1 1.6 2.7 2.8.6 1.2.9 2.6.9 4.2s-.3 3-.9 4.3c-.6 1.2-1.5 2.1-2.7 2.8-1.2.6-2.6 1-4.1 1-1.7 0-3-.3-4.2-1zm6.9-3.4c.7-.8 1-2 1-3.6s-.3-2.8-1-3.6c-.7-.8-1.6-1.2-2.7-1.2-1.2 0-2.1.4-2.7 1.2-.7.8-1 2-1 3.6s.3 2.8 1 3.6c.7.8 1.6 1.2 2.7 1.2 1.1.1 2-.4 2.7-1.2zM85.2 289.8h-4.3l-2-5.2c-.2-.6-.8-.9-1.6-.9h-1.5v6.1h-4v-15.6h7.2c1.9 0 3.3.4 4.2 1.2.9.8 1.4 2 1.4 3.5 0 1.1-.3 2-.8 2.7-.6.8-1.4 1.3-2.4 1.6.4.1.8.3 1.2.6.3.3.6.8.8 1.3l1.8 4.7zm-5-9.5c.4-.3.6-.7.6-1.3 0-.6-.2-1-.6-1.3-.4-.3-1-.4-1.9-.4h-2.6v3.4h2.6c.9 0 1.5-.2 1.9-.4zM90.4 289.8v-12.3h-4.6v-3.3h13.4v3.3h-4.6v12.3h-4.2zM102.5 288.3c-1.2-1.1-1.7-2.8-1.7-5.1v-9h4v9.2c0 1.1.3 2 .8 2.6s1.2.9 2.2.9c.9 0 1.6-.3 2.1-.9.5-.6.7-1.5.7-2.6v-9.2h4v9c0 2.2-.6 3.9-1.8 5-1.2 1.2-2.9 1.7-5.1 1.7-2.3.1-4.1-.5-5.2-1.6zM131 281v7.8c-.8.4-1.8.7-2.8.9-1 .2-2.1.3-3.2.3-1.7 0-3.2-.3-4.4-1-1.2-.6-2.2-1.6-2.9-2.8-.7-1.2-1-2.6-1-4.3 0-1.6.3-3 1-4.2.7-1.2 1.6-2.1 2.8-2.8 1.2-.6 2.7-1 4.3-1 1.1 0 2.2.1 3.2.4 1 .3 1.8.7 2.4 1.2l-1.3 2.9c-.7-.5-1.4-.8-2.1-1-.7-.2-1.4-.3-2.1-.3-1.4 0-2.4.4-3.1 1.2-.7.8-1 2-1 3.6 0 1.7.4 2.9 1.1 3.7.7.8 1.8 1.2 3.3 1.2.7 0 1.4-.1 2.1-.2v-2.9h-2.7v-2.7h6.4zM145.5 289.8l-1.4-3.2h-6.9l-1.4 3.2h-4.1l7.3-15.6h3.2l7.3 15.6h-4zm-7-6.3h4.2l-2.1-4.9-2.1 4.9zM150.4 289.8v-15.6h4.1v12.3h6.6v3.3h-10.7z"/>
</svg>
