<svg xmlns="http://www.w3.org/2000/svg" width="200" height="290" viewBox="0 0 200 290">
    <title>Mexico Logomark</title>
    <style>.green{fill:#138a60}.white{fill:#e2e8f0}.red{fill:#eb2950}</style>
    <path role="TL" class="green" d="M1 21l38 22 38-22-38-21z"/>
    <path role="TR" class="red" d="M124 45l37 21 38-21-38-22z"/>
    <path role="OL" class="green" d="M0 164l78 45v-43l-41-24v-95l-37-22z"/>
    <path role="OR" class="red" d="M163 70v44l37-22-.1-43z"/>
    <path role="OB" class="white" d="M82 166v43l77-45v-43z"/>
    <path role="IL" class="green" d="M41 47v90l37-22v-90z"/>
    <path role="IR" class="red" d="M122 92l37 22v-44l-37-21z"/>
    <path role="IB" class="white" d="M42.5 140.5l37.5 21.5 77-44.5-37-22.5z"/>
    <path fill-rule="evenodd" clip-rule="evenodd" d="M7.9 217v40.2h14.8v6.9h-22.7v-47.1h7.9zm42.4 20v-4.2h7.4v31.4h-7.4v-4.2c-1 1.6-2.4 2.8-4.3 3.7-1.8.9-3.7 1.3-5.6 1.3-2.4 0-4.6-.4-6.6-1.3-2-.8-3.7-2.1-5.2-3.6-1.4-1.5-2.6-3.3-3.3-5.3-.8-2-1.2-4.2-1.2-6.3 0-2.2.4-4.3 1.2-6.3.8-2 1.9-3.8 3.3-5.3 1.5-1.5 3.2-2.8 5.2-3.6 2-.9 4.2-1.3 6.6-1.3 1.9 0 3.7.4 5.6 1.3 1.9.9 3.3 2.1 4.3 3.7zm-.6 15.3c.5-1.2.7-2.5.7-3.8 0-1.3-.2-2.6-.7-3.8-.4-1.2-1.1-2.2-1.9-3.2-.8-.9-1.8-1.6-3-2.2-1.2-.5-2.4-.8-3.9-.8-1.4 0-2.7.3-3.8.8-1.1.5-2.1 1.3-2.9 2.2-.8.9-1.5 2-1.9 3.2-.4 1.2-.7 2.5-.7 3.8 0 1.3.2 2.6.6 3.8.4 1.2 1.1 2.3 1.9 3.2.8.9 1.8 1.6 2.9 2.2 1.1.5 2.4.8 3.8.8s2.7-.3 3.9-.8c1.1-.5 2.1-1.2 3-2.2.9-.9 1.5-2 2-3.2zm14 11.9v-31.4h20.2v7.2h-12.8v24.2h-7.4zm47.2-27.2v-4.2h7.4v31.4h-7.4v-4.2c-1 1.6-2.4 2.8-4.3 3.7-1.8.9-3.7 1.3-5.6 1.3-2.4 0-4.6-.4-6.6-1.3-2-.8-3.7-2.1-5.2-3.6-1.4-1.5-2.6-3.3-3.3-5.3-.8-2-1.2-4.2-1.2-6.3 0-2.2.4-4.3 1.2-6.3.8-2 1.9-3.8 3.3-5.3 1.5-1.5 3.2-2.8 5.2-3.6 2-.9 4.2-1.3 6.6-1.3 1.9 0 3.7.4 5.6 1.3 1.8.9 3.3 2.1 4.3 3.7zm-.7 15.3c.5-1.2.7-2.5.7-3.8 0-1.3-.2-2.6-.7-3.8-.4-1.2-1.1-2.2-1.9-3.2-.8-.9-1.8-1.6-3-2.2-1.2-.5-2.4-.8-3.9-.8-1.4 0-2.7.3-3.8.8-1.1.5-2.1 1.3-2.9 2.2-.8.9-1.5 2-1.9 3.2-.4 1.2-.7 2.5-.6 3.8 0 1.3.2 2.6.6 3.8.4 1.2 1.1 2.3 1.9 3.2.8.9 1.8 1.6 2.9 2.2 1.1.5 2.4.8 3.8.8s2.7-.3 3.9-.8c1.1-.5 2.1-1.2 3-2.2.8-.9 1.5-2 1.9-3.2zm38-19.5h7.5l-12.2 31.4h-9.4l-12.2-31.4h7.5l9.4 24.1 9.4-24.1zm23.8-.8c10.1 0 17.1 8.9 15.8 19.2h-24.8c0 2.7 2.8 7.9 9.4 7.9 5.7 0 9.5-4.9 9.5-4.9l5 3.8c-4.5 4.7-8.2 6.9-13.9 6.9-10.3 0-17.3-6.4-17.3-16.5-.1-9 7.1-16.4 16.3-16.4zm-9 13.8h17.8c-.1-.6-1-7.9-9-7.9-7.9-.1-8.7 7.2-8.8 7.9zm29.6 18.4v-47.2h7.4v47.2h-7.4z"/>
    <path d="M70.6 274.2h3.2v15.6h-3.6v-7.1l-3 7.1h-2.6l-3-7.1v7.1h-3.6v-15.6h3.2l4.7 10.7 4.7-10.7zM76.7 289.8v-15.6h11.2v3.2h-7.1v2.9h6.7v3.2h-6.7v3.2h7.1v3.2h-11.2zM98.4 281.9l6 7.9h-4.8l-3.5-4.9-3.5 4.9h-4.8l6-7.9-5.8-7.7h4.8l3.4 4.7 3.4-4.7h4.8l-6 7.7zM105.1 289.8v-15.6h4.1v15.6h-4.1zM115.4 289c-1.2-.7-2.1-1.6-2.8-2.8-.7-1.2-1-2.6-1-4.2s.3-3 1-4.2c.7-1.2 1.6-2.1 2.8-2.8 1.2-.7 2.6-1 4.3-1 1 0 2 .2 3 .5s1.7.7 2.3 1.2l-1.3 2.9c-1.3-.9-2.6-1.4-4-1.4-1.3 0-2.2.4-2.9 1.2-.7.8-1 2-1 3.5 0 1.6.3 2.8 1 3.6.7.8 1.6 1.2 2.9 1.2 1.4 0 2.7-.5 4-1.4l1.3 2.9c-.6.5-1.4.9-2.3 1.2-1 .3-2 .5-3 .5-1.7.1-3.1-.2-4.3-.9zM130 289c-1.2-.6-2.1-1.6-2.7-2.8-.6-1.2-1-2.6-1-4.3 0-1.6.3-3 1-4.2.6-1.2 1.6-2.1 2.7-2.8s2.6-1 4.2-1 3 .3 4.2 1 2.1 1.6 2.7 2.8c.6 1.2.9 2.6.9 4.2s-.3 3-.9 4.3c-.6 1.2-1.5 2.1-2.7 2.8-1.2.7-2.6 1-4.2 1s-3-.3-4.2-1zm6.9-3.4c.7-.8 1-2 1-3.6s-.3-2.8-1-3.6c-.7-.8-1.6-1.2-2.8-1.2-1.2 0-2.1.4-2.7 1.2-.7.8-1 2-1 3.6s.3 2.8 1 3.6c.7.8 1.6 1.2 2.7 1.2 1.2.1 2.2-.4 2.8-1.2z"/>
</svg>
