<svg xmlns="http://www.w3.org/2000/svg" width="200" height="290" viewBox="0 0 200 290">
    <title>Malaysia Logomark</title>
    <style>.blue{fill:#0b3f8e}.red{fill:#e1244a}.white{fill:#e2e8f0}.yellow{fill:#ffd34f}</style>
    <path role="TL" class="yellow" d="M1 21l38 22 38-22-38-21z"/>
    <path role="TR" class="red" d="M124 45l37 21 38-21-38-22z"/>
    <path role="OL" class="blue" d="M0 164l78 45v-43l-41-24v-95l-37-22z"/>
    <path role="OR" class="red" d="M163 70v44l37-22-.1-43z"/>
    <path role="OB" class="white" d="M82 166v43l77-45v-43z"/>
    <path role="IL" class="blue" d="M41 47v90l37-22v-90z"/>
    <path role="IR" class="white" d="M122 92l37 22v-44l-37-21z"/>
    <path role="IB" class="red" d="M42.5 140.5l37.5 21.5 77-44.5-37-22.5z"/>
    <path fill-rule="evenodd" clip-rule="evenodd" d="M7.9 217v40.2h14.8v6.9h-22.7v-47.1h7.9zm42.4 20v-4.2h7.4v31.4h-7.4v-4.2c-1 1.6-2.4 2.8-4.3 3.7-1.8.9-3.7 1.3-5.6 1.3-2.4 0-4.6-.4-6.6-1.3-2-.8-3.7-2.1-5.2-3.6-1.4-1.5-2.6-3.3-3.3-5.3-.8-2-1.2-4.2-1.2-6.3 0-2.2.4-4.3 1.2-6.3.8-2 1.9-3.8 3.3-5.3 1.5-1.5 3.2-2.8 5.2-3.6 2-.9 4.2-1.3 6.6-1.3 1.9 0 3.7.4 5.6 1.3 1.9.9 3.3 2.1 4.3 3.7zm-.6 15.3c.5-1.2.7-2.5.7-3.8 0-1.3-.2-2.6-.7-3.8-.4-1.2-1.1-2.2-1.9-3.2-.8-.9-1.8-1.6-3-2.2-1.2-.5-2.4-.8-3.9-.8-1.4 0-2.7.3-3.8.8-1.1.5-2.1 1.3-2.9 2.2-.8.9-1.5 2-1.9 3.2-.4 1.2-.7 2.5-.7 3.8 0 1.3.2 2.6.6 3.8.4 1.2 1.1 2.3 1.9 3.2.8.9 1.8 1.6 2.9 2.2 1.1.5 2.4.8 3.8.8s2.7-.3 3.9-.8c1.1-.5 2.1-1.2 3-2.2.9-.9 1.5-2 2-3.2zm14 11.9v-31.4h20.2v7.2h-12.8v24.2h-7.4zm47.2-27.2v-4.2h7.4v31.4h-7.4v-4.2c-1 1.6-2.4 2.8-4.3 3.7-1.8.9-3.7 1.3-5.6 1.3-2.4 0-4.6-.4-6.6-1.3-2-.8-3.7-2.1-5.2-3.6-1.4-1.5-2.6-3.3-3.3-5.3-.8-2-1.2-4.2-1.2-6.3 0-2.2.4-4.3 1.2-6.3.8-2 1.9-3.8 3.3-5.3 1.5-1.5 3.2-2.8 5.2-3.6 2-.9 4.2-1.3 6.6-1.3 1.9 0 3.7.4 5.6 1.3 1.8.9 3.3 2.1 4.3 3.7zm-.7 15.3c.5-1.2.7-2.5.7-3.8 0-1.3-.2-2.6-.7-3.8-.4-1.2-1.1-2.2-1.9-3.2-.8-.9-1.8-1.6-3-2.2-1.2-.5-2.4-.8-3.9-.8-1.4 0-2.7.3-3.8.8-1.1.5-2.1 1.3-2.9 2.2-.8.9-1.5 2-1.9 3.2-.4 1.2-.7 2.5-.6 3.8 0 1.3.2 2.6.6 3.8.4 1.2 1.1 2.3 1.9 3.2.8.9 1.8 1.6 2.9 2.2 1.1.5 2.4.8 3.8.8s2.7-.3 3.9-.8c1.1-.5 2.1-1.2 3-2.2.8-.9 1.5-2 1.9-3.2zm38-19.5h7.5l-12.2 31.4h-9.4l-12.2-31.4h7.5l9.4 24.1 9.4-24.1zm23.8-.8c10.1 0 17.1 8.9 15.8 19.2h-24.8c0 2.7 2.8 7.9 9.4 7.9 5.7 0 9.5-4.9 9.5-4.9l5 3.8c-4.5 4.7-8.2 6.9-13.9 6.9-10.3 0-17.3-6.4-17.3-16.5-.1-9 7.1-16.4 16.3-16.4zm-9 13.8h17.8c-.1-.6-1-7.9-9-7.9-7.9-.1-8.7 7.2-8.8 7.9zm29.6 18.4v-47.2h7.4v47.2h-7.4z"/>
    <path d="M54.7 274.2h3.2v15.6h-3.6v-7.1l-3 7.1h-2.6l-3-7.1v7.1h-3.7v-15.6h3.3l4.7 10.7 4.7-10.7zM72.8 289.8l-1.4-3.2h-7l-1.4 3.2h-4.2l7.4-15.6h3.3l7.4 15.6h-4.1zm-7-6.3h4.3l-2.1-4.9-2.2 4.9zM77.8 289.8v-15.6h4.2v12.3h6.7v3.3h-10.9zM102.8 289.8l-1.4-3.2h-7l-1.4 3.2h-4.2l7.4-15.6h3.3l7.4 15.6h-4.1zm-7-6.3h4.3l-2.1-4.9-2.2 4.9zM120.5 274.2l-6.7 9.6v6h-4.2v-6l-6.6-9.6h4.7l4 6.2 4.1-6.2h4.7zM122.2 289.5c-1.2-.3-2.1-.7-2.8-1.2l1.3-2.9c.8.5 1.6.9 2.4 1.1.9.3 1.7.4 2.6.4.9 0 1.6-.1 2-.4.5-.2.7-.6.7-1s-.2-.7-.6-1c-.4-.3-1.2-.5-2.4-.8-1.5-.3-2.7-.7-3.5-1.1-.8-.4-1.4-.9-1.7-1.5-.3-.6-.5-1.3-.5-2.1 0-.9.3-1.8.8-2.6s1.3-1.4 2.3-1.8c1-.4 2.1-.6 3.4-.6 1.1 0 2.2.2 3.3.5 1.1.3 1.9.7 2.5 1.2l-1.3 2.9c-.7-.5-1.4-.9-2.2-1.1-.8-.3-1.5-.4-2.3-.4-.8 0-1.4.1-1.8.4-.5.3-.7.7-.7 1.2 0 .3.1.5.2.7.2.2.5.3.9.5s1.1.3 2 .5c1.4.3 2.6.7 3.4 1.1.8.4 1.4.9 1.7 1.5.3.6.5 1.3.5 2.1 0 1.5-.6 2.7-1.8 3.6-1.2.9-2.9 1.3-5 1.3-1.1 0-2.2-.2-3.4-.5zM134.9 289.8v-15.6h4.2v15.6h-4.2zM153.9 289.8l-1.4-3.2h-7l-1.4 3.2h-4.2l7.4-15.6h3.3l7.4 15.6h-4.1zm-7-6.3h4.3l-2.1-4.9-2.2 4.9z"/>
</svg>
