<svg xmlns="http://www.w3.org/2000/svg" width="200" height="209" viewBox="0 0 200 209">
    <title>Ethiopia Logomark</title>
    <style>.green{fill:#078930} .yellow{fill:#FCDD09} .red{fill:#DA121A} .blue{fill:#0F47AF}</style>
    <path role="TL" class="green" d="M1 21l38 22 38-22-38-21z"/>
    <path role="TR" class="green" d="M124 45l37 21 38-21-38-22z"/>
    <path role="OL" class="red" d="M0 164l78 45v-43l-41-24v-95l-37-22z"/>
    <path role="OR" class="yellow" d="M163 70v44l37-22-.1-43z"/>
    <path role="OB" class="red" d="M82 166v43l77-45v-43z"/>
    <path role="IL" class="yellow" d="M41 47v90l37-22v-90z"/>
    <path role="IR" class="blue" d="M122 92l37 22v-44l-37-21z"/>
    <path role="IB" class="yellow" d="M42.5 140.5l37.5 21.5 77-44.5-37-22.5z"/>
</svg>
