<svg xmlns="http://www.w3.org/2000/svg" width="200" height="290" viewBox="0 0 200 290">
    <title>Ethiopia Logomark</title>
    <style>.green{fill:#078930} .yellow{fill:#FCDD09} .red{fill:#DA121A} .blue{fill:#0F47AF}</style>
    <path role="TL" class="green" d="M1 21l38 22 38-22-38-21z"/>
    <path role="TR" class="green" d="M124 45l37 21 38-21-38-22z"/>
    <path role="OL" class="red" d="M0 164l78 45v-43l-41-24v-95l-37-22z"/>
    <path role="OR" class="yellow" d="M163 70v44l37-22-.1-43z"/>
    <path role="OB" class="red" d="M82 166v43l77-45v-43z"/>
    <path role="IL" class="yellow" d="M41 47v90l37-22v-90z"/>
    <path role="IR" class="blue" d="M122 92l37 22v-44l-37-21z"/>
    <path role="IB" class="yellow" d="M42.5 140.5l37.5 21.5 77-44.5-37-22.5z"/>
    <path fill-rule="evenodd" clip-rule="evenodd" d="M7.9 217v40.2h14.8v6.9h-22.7v-47.1h7.9zm42.4 20v-4.2h7.4v31.4h-7.4v-4.2c-1 1.6-2.4 2.8-4.3 3.7-1.8.9-3.7 1.3-5.6 1.3-2.4 0-4.6-.4-6.6-1.3-2-.8-3.7-2.1-5.2-3.6-1.4-1.5-2.6-3.3-3.3-5.3-.8-2-1.2-4.2-1.2-6.3 0-2.2.4-4.3 1.2-6.3.8-2 1.9-3.8 3.3-5.3 1.5-1.5 3.2-2.8 5.2-3.6 2-.9 4.2-1.3 6.6-1.3 1.9 0 3.7.4 5.6 1.3 1.9.9 3.3 2.1 4.3 3.7zm-.6 15.3c.5-1.2.7-2.5.7-3.8 0-1.3-.2-2.6-.7-3.8-.4-1.2-1.1-2.2-1.9-3.2-.8-.9-1.8-1.6-3-2.2-1.2-.5-2.4-.8-3.9-.8-1.4 0-2.7.3-3.8.8-1.1.5-2.1 1.3-2.9 2.2-.8.9-1.5 2-1.9 3.2-.4 1.2-.7 2.5-.7 3.8 0 1.3.2 2.6.6 3.8.4 1.2 1.1 2.3 1.9 3.2.8.9 1.8 1.6 2.9 2.2 1.1.5 2.4.8 3.8.8s2.7-.3 3.9-.8c1.1-.5 2.1-1.2 3-2.2.9-.9 1.5-2 2-3.2zm14 11.9v-31.4h20.2v7.2h-12.8v24.2h-7.4zm47.2-27.2v-4.2h7.4v31.4h-7.4v-4.2c-1 1.6-2.4 2.8-4.3 3.7-1.8.9-3.7 1.3-5.6 1.3-2.4 0-4.6-.4-6.6-1.3-2-.8-3.7-2.1-5.2-3.6-1.4-1.5-2.6-3.3-3.3-5.3-.8-2-1.2-4.2-1.2-6.3 0-2.2.4-4.3 1.2-6.3.8-2 1.9-3.8 3.3-5.3 1.5-1.5 3.2-2.8 5.2-3.6 2-.9 4.2-1.3 6.6-1.3 1.9 0 3.7.4 5.6 1.3 1.8.9 3.3 2.1 4.3 3.7zm-.7 15.3c.5-1.2.7-2.5.7-3.8 0-1.3-.2-2.6-.7-3.8-.4-1.2-1.1-2.2-1.9-3.2-.8-.9-1.8-1.6-3-2.2-1.2-.5-2.4-.8-3.9-.8-1.4 0-2.7.3-3.8.8-1.1.5-2.1 1.3-2.9 2.2-.8.9-1.5 2-1.9 3.2-.4 1.2-.7 2.5-.6 3.8 0 1.3.2 2.6.6 3.8.4 1.2 1.1 2.3 1.9 3.2.8.9 1.8 1.6 2.9 2.2 1.1.5 2.4.8 3.8.8s2.7-.3 3.9-.8c1.1-.5 2.1-1.2 3-2.2.8-.9 1.5-2 1.9-3.2zm38-19.5h7.5l-12.2 31.4h-9.4l-12.2-31.4h7.5l9.4 24.1 9.4-24.1zm23.8-.8c10.1 0 17.1 8.9 15.8 19.2h-24.8c0 2.7 2.8 7.9 9.4 7.9 5.7 0 9.5-4.9 9.5-4.9l5 3.8c-4.5 4.7-8.2 6.9-13.9 6.9-10.3 0-17.3-6.4-17.3-16.5-.1-9 7.1-16.4 16.3-16.4zm-9 13.8h17.8c-.1-.6-1-7.9-9-7.9-7.9-.1-8.7 7.2-8.8 7.9zm29.6 18.4v-47.2h7.4v47.2h-7.4z"/>
    <path fill-rule="evenodd" clip-rule="evenodd" d="M 106.99609 268.01172 C 104.90365 268.01172 103.09565 268.45008 101.57031 269.33008 C 100.04498 270.19052 98.862372 271.42379 98.021484 273.02734 C 97.200152 274.6309 96.789063 276.51684 96.789062 278.6875 C 96.789063 280.87772 97.200152 282.77535 98.021484 284.37891 C 98.862372 285.98246 100.04498 287.22352 101.57031 288.10352 C 103.09565 288.98352 104.90365 289.42383 106.99609 289.42383 C 109.08853 289.42383 110.88875 288.98352 112.39453 288.10352 C 113.91986 287.22352 115.09273 285.98246 115.91406 284.37891 C 116.7354 282.77535 117.14648 280.87772 117.14648 278.6875 C 117.14648 276.51684 116.7354 274.6309 115.91406 273.02734 C 115.09273 271.42379 113.91986 270.19052 112.39453 269.33008 C 110.88875 268.45008 109.08853 268.01172 106.99609 268.01172 z M 29.572266 268.27539 L 29.572266 289.16016 L 43.974609 289.16016 L 43.974609 285.61133 L 34.060547 285.61133 L 34.060547 280.33008 L 43.357422 280.33008 L 43.357422 276.75195 L 34.060547 276.75195 L 34.060547 271.82422 L 43.974609 271.82422 L 43.974609 268.27539 L 29.572266 268.27539 z M 45.601562 268.27539 L 45.601562 272 L 52.142578 272 L 52.142578 289.16016 L 56.777344 289.16016 L 56.777344 272 L 63.318359 272 L 63.318359 268.27539 L 45.601562 268.27539 z M 65.779297 268.27539 L 65.779297 289.16016 L 70.267578 289.16016 L 70.267578 280.35938 L 79.947266 280.35938 L 79.947266 289.16016 L 84.435547 289.16016 L 84.435547 268.27539 L 79.947266 268.27539 L 79.947266 276.75195 L 70.267578 276.75195 L 70.267578 268.27539 L 65.779297 268.27539 z M 88.638672 268.27539 L 88.638672 289.16016 L 93.214844 289.16016 L 93.214844 268.27539 L 88.638672 268.27539 z M 120.72266 268.27539 L 120.72266 289.16016 L 125.29883 289.16016 L 125.29883 280.71289 L 130.19727 280.71289 C 132.50482 280.71289 134.29334 280.15568 135.56445 279.04102 C 136.85512 277.9068 137.50195 276.39103 137.50195 274.49414 C 137.50195 272.5777 136.86486 271.06193 135.59375 269.94727 C 134.3422 268.8326 132.54393 268.27539 130.19727 268.27539 L 120.72266 268.27539 z M 140.54492 268.27539 L 140.54492 289.16016 L 145.12109 289.16016 L 145.12109 268.27539 L 140.54492 268.27539 z M 156.49805 268.27539 L 146.90625 289.16016 L 151.51172 289.16016 L 153.51367 284.52539 L 163.25195 284.52539 L 165.23828 289.16016 L 169.78516 289.16016 L 160.19336 268.27539 L 156.49805 268.27539 z M 106.99609 271.56055 C 108.71698 271.56055 110.07689 272.16647 111.07422 273.37891 C 112.09111 274.5718 112.59961 276.34084 112.59961 278.6875 C 112.59961 281.03417 112.09111 282.82464 111.07422 284.05664 C 110.07689 285.26908 108.71698 285.875 106.99609 285.875 C 105.25565 285.875 103.88796 285.26908 102.89062 284.05664 C 101.89329 282.84419 101.39453 281.05372 101.39453 278.6875 C 101.39453 276.34084 101.89329 274.5718 102.89062 273.37891 C 103.88796 272.16647 105.25565 271.56055 106.99609 271.56055 z M 125.29883 271.79492 L 129.61133 271.79492 C 130.84333 271.79492 131.74149 272.03067 132.30859 272.5 C 132.89526 272.96933 133.18945 273.64344 133.18945 274.52344 C 133.18945 275.38388 132.89526 276.04824 132.30859 276.51758 C 131.72193 276.98691 130.82377 277.22266 129.61133 277.22266 L 125.29883 277.22266 L 125.29883 271.79492 z M 158.40234 273.20508 L 161.75586 281.03516 L 155.02148 281.03516 L 158.40234 273.20508 z " />
</svg>
